<?xml version="1.0" encoding="UTF-8"?>
<svg id="Layer_2" data-name="Layer 2" xmlns="http://www.w3.org/2000/svg" viewBox="0 0 293.96 334.83">
  <defs>
    <style>
      .cls-1 {
        fill: #fff;
      }
    </style>
  </defs>
  <g id="Layer_1-2" data-name="Layer 1">
    <g>
      <g>
        <path class="cls-1" d="M16.38,319.92c0,2.17-.95,3.95-2.85,5.35l-1.46,1.06c-.61.46-.92.81-.92,1.05,0,.3.17.54.52.73l-2.07,1.72h-.13c-.54-.39-.81-.96-.81-1.69,0-1.05.6-2.03,1.81-2.94l1.82-1.36c1.11-.84,1.67-2,1.67-3.49v-1.21c0-1.3-.57-1.94-1.72-1.94h-6.85v-.18c.53-.39.8-1.08.8-2.07v-2.9h-1.74v-.18l3.87-2.77h.17v6.06h3.8c1.55,0,2.63.32,3.25.95.55.58.83,1.54.83,2.9v.92Z"/>
        <polygon class="cls-1" points="22.47 321.75 20.29 323.97 20.14 323.97 20.14 317.41 18.45 317.41 18.45 317.23 22.3 314.2 22.47 314.2 22.47 321.75"/>
        <path class="cls-1" d="M36.23,319.92c0,2.17-.95,3.95-2.85,5.35l-1.46,1.06c-.61.46-.92.81-.92,1.05,0,.3.17.54.52.73l-2.07,1.72h-.13c-.54-.39-.81-.96-.81-1.69,0-1.05.6-2.03,1.81-2.94l1.82-1.36c1.11-.84,1.67-2,1.67-3.49v-1.21c0-1.3-.57-1.94-1.72-1.94h-6.85v-.18c.53-.39.8-1.08.8-2.07v-2.9h-1.74v-.18l3.87-2.77h.17v6.06h3.8c1.55,0,2.63.32,3.25.95.55.58.83,1.54.83,2.9v.92Z"/>
        <path class="cls-1" d="M45.53,329.86h-.16c-.78-2.09-1.19-3.6-1.25-4.54-.39.54-1.15,1.5-2.28,2.87-.83,1-1.66,1.5-2.49,1.5-.58,0-.99-.2-1.23-.59v-.1l1.93-2.49c.16.18.35.26.59.26.53,0,1.34-.58,2.45-1.74.17-.18.32-.34.45-.5.14-.16.25-.31.35-.45.1-.14.14-.31.14-.51v-4.11c0-1.42-.65-2.13-1.95-2.13h-3.45v-.24l3.59-3.33h.2v1.59c1.11,0,2.02.3,2.72.89.83.71,1.25,1.77,1.25,3.19v4.13c0,.31.03.67.08,1.06.05.39.14.82.25,1.29.22.94.47,1.67.75,2.21l-1.93,1.74Z"/>
        <path class="cls-1" d="M62.27,327.46l-2.14,1.99h-11.32v-.16l2.15-1.99h7.5c-.43-.3-.64-.91-.64-1.82v-5.81c0-1.56-.7-2.34-2.1-2.34h-6.48v-.24l3.61-3.33h.18v1.53h2.82c1.56,0,2.68.39,3.36,1.18.64.73.96,1.9.96,3.52v5.92c0,.48.05.82.16,1.01.15.25.43.38.84.38h1.1v.16Z"/>
        <path class="cls-1" d="M84.38,327.95l-2.18,1.95h-.13v-9.7c0-1.91-.97-2.87-2.91-2.87h-3.88v7.2c0,1.52-.45,2.78-1.34,3.78-.86.94-1.88,1.4-3.06,1.4-.53,0-1.07-.14-1.61-.42v-.1l1.74-1.86c.19.22.41.33.64.33.32,0,.6-.13.85-.38.3-.3.45-.7.45-1.21v-8.74h-2.48v-.24l4.18-3.33h.17l.26,1.53h4.22c3.38,0,5.06,1.66,5.06,4.97v7.68Z"/>
        <polygon class="cls-1" points="90.75 321.75 88.58 323.97 88.43 323.97 88.43 317.41 86.74 317.41 86.74 317.23 90.58 314.2 90.75 314.2 90.75 321.75"/>
        <path class="cls-1" d="M106.31,327.46l-2.14,1.99h-11.32v-.16l2.15-1.99h7.5c-.43-.3-.64-.91-.64-1.82v-5.81c0-1.56-.7-2.34-2.1-2.34h-6.48v-.24l3.61-3.33h.18v1.53h2.82c1.56,0,2.68.39,3.36,1.18.64.73.96,1.9.96,3.52v5.92c0,.48.05.82.16,1.01.15.25.43.38.84.38h1.1v.16Z"/>
        <polygon class="cls-1" points="111.6 321.75 109.42 323.97 109.28 323.97 109.28 317.41 107.59 317.41 107.59 317.23 111.43 314.2 111.6 314.2 111.6 321.75"/>
        <path class="cls-1" d="M129.26,322.23c0,2.29-.69,4.14-2.09,5.54-1.29,1.32-2.91,1.98-4.84,1.98-2.04,0-3.65-.65-4.84-1.94-1.2-1.3-1.8-3.07-1.8-5.3v-5.16h-1.72v-.24l3.92-3.33h.14v1.55h4.53c4.46,0,6.69,2.3,6.69,6.9M126.93,322.5c0-1.96-.44-3.35-1.31-4.16-.74-.69-1.89-1.04-3.42-1.04h-4.2v5.38c0,1.76.47,3.1,1.4,4.01.77.76,1.75,1.14,2.94,1.14s2.16-.4,3.02-1.21c1.05-.97,1.57-2.35,1.57-4.13"/>
        <polygon class="cls-1" points="135.2 327.95 133.05 329.9 132.91 329.9 132.91 317.41 131.19 317.41 131.19 317.23 135.03 314.2 135.2 314.2 135.2 327.95"/>
        <path class="cls-1" d="M148.97,319.92c0,2.17-.95,3.95-2.85,5.35l-1.46,1.06c-.61.46-.92.81-.92,1.05,0,.3.17.54.53.73l-2.07,1.72h-.13c-.54-.39-.81-.96-.81-1.69,0-1.05.6-2.03,1.81-2.94l1.82-1.36c1.11-.84,1.67-2,1.67-3.49v-1.21c0-1.3-.57-1.94-1.72-1.94h-6.85v-.18c.53-.39.8-1.08.8-2.07v-2.9h-1.74v-.18l3.87-2.77h.17v6.06h3.8c1.55,0,2.63.32,3.25.95.55.58.83,1.54.83,2.9v.92Z"/>
        <path class="cls-1" d="M164.75,320.64c0,2.39-1.49,4.66-4.46,6.82l-3.25,2.37h-.33v-2.15l1.92-1.43c2.44-1.82,3.66-3.63,3.66-5.42,0-2.33-1.17-3.5-3.5-3.5h-7.74v-.24l3.77-3.33h.16v1.54h4.36c1.72,0,3.05.45,3.98,1.35.97.94,1.46,2.27,1.46,3.99M154.97,332.6l-2.18,2.23h-.14v-13.3h-1.21v-.18l3.36-2.26h.17v13.51Z"/>
        <path class="cls-1" d="M181.59,322.23c0,2.29-.7,4.14-2.09,5.54-1.3,1.32-2.91,1.98-4.84,1.98-2.04,0-3.65-.65-4.84-1.94-1.2-1.3-1.8-3.07-1.8-5.3v-5.16h-1.72v-.24l3.92-3.33h.14v1.55h4.53c4.46,0,6.69,2.3,6.69,6.9M179.26,322.5c0-1.96-.44-3.35-1.31-4.16-.74-.69-1.89-1.04-3.42-1.04h-4.2v5.38c0,1.76.47,3.1,1.4,4.01.77.76,1.75,1.14,2.94,1.14s2.16-.4,3.02-1.21c1.05-.97,1.57-2.35,1.57-4.13"/>
        <path class="cls-1" d="M197.23,320.64c0,2.39-1.49,4.66-4.46,6.82l-3.25,2.37h-.33v-2.15l1.92-1.43c2.44-1.82,3.66-3.63,3.66-5.42,0-2.33-1.17-3.5-3.5-3.5h-7.74v-.24l3.77-3.33h.16v1.54h4.36c1.72,0,3.05.45,3.98,1.35.97.94,1.46,2.27,1.46,3.99M187.46,332.6l-2.18,2.23h-.14v-13.3h-1.21v-.18l3.36-2.26h.17v13.51Z"/>
        <path class="cls-1" d="M212.82,327.89l-2.14,1.98h-.14v-1.09c0-1.36-.27-2.54-.8-3.52-.52-.95-1.36-1.86-2.53-2.74l-4.21-3.2v8.62l-2.15,1.95h-.13v-12.57h-1.73v-.18l3.79-2.98h.14v.64c0,1.57.63,2.81,1.89,3.74l4.07,2.98c.89-1.14,1.34-1.96,1.34-2.48v-1.64h-1.69v-.18l3.87-3.06h.14v4.12c0,.83-.45,1.59-1.35,2.27l-1.77,1.35c1.19.75,2.08,1.71,2.66,2.87.5.96.75,1.95.75,2.98v.13Z"/>
        <path class="cls-1" d="M225.2,327.95l-2.18,1.95h-.13v-6.76h-1.22v-.18l3.36-2.26h.17v7.24ZM234.31,327.95l-2.18,1.95h-.14v-9.96c0-1.74-.88-2.61-2.64-2.61h-7.61v-.24l3.65-3.33h.17v1.53h3.95c1.7,0,2.94.39,3.71,1.18.73.75,1.09,1.92,1.09,3.52v7.95Z"/>
        <path class="cls-1" d="M251.42,322.38c0,2.11-.65,3.86-1.94,5.26-1.29,1.4-2.86,2.1-4.71,2.1-2.04,0-3.65-.65-4.84-1.94-1.2-1.3-1.8-3.07-1.8-5.3v-5.1h-1.67v-.18l3.85-3.04h.14v8.51c0,1.76.46,3.09,1.39,3.99.77.76,1.74,1.14,2.93,1.14s2.09-.4,2.87-1.19c.95-.95,1.43-2.33,1.43-4.12,0-3.45-1.21-5.17-3.63-5.17-.95,0-1.89.38-2.82,1.15l-.2-.26,3.92-4.13h.28v1.21c0,.23.07.34.21.34,1.01,0,1.94.43,2.79,1.29,1.2,1.22,1.8,3.04,1.8,5.46"/>
        <polygon class="cls-1" points="257.37 321.75 255.2 323.97 255.05 323.97 255.05 317.41 253.36 317.41 253.36 317.23 257.2 314.2 257.37 314.2 257.37 321.75"/>
        <polygon class="cls-1" points="263.95 327.95 261.8 329.9 261.65 329.9 261.65 317.41 259.93 317.41 259.93 317.23 263.78 314.2 263.95 314.2 263.95 327.95"/>
        <polygon class="cls-1" points="270.52 327.95 268.37 329.9 268.22 329.9 268.22 317.41 266.51 317.41 266.51 317.23 270.35 314.2 270.52 314.2 270.52 327.95"/>
        <path class="cls-1" d="M288.18,322.23c0,2.29-.7,4.14-2.09,5.54-1.3,1.32-2.91,1.98-4.84,1.98-2.04,0-3.65-.65-4.84-1.94-1.2-1.3-1.8-3.07-1.8-5.3v-5.16h-1.72v-.24l3.92-3.33h.14v1.55h4.53c4.46,0,6.69,2.3,6.69,6.9M285.84,322.5c0-1.96-.44-3.35-1.31-4.16-.74-.69-1.89-1.04-3.42-1.04h-4.2v5.38c0,1.76.47,3.1,1.4,4.01.77.76,1.75,1.14,2.94,1.14s2.16-.4,3.02-1.21c1.05-.97,1.57-2.35,1.57-4.13"/>
        <g>
          <path class="cls-1" d="M42.54,272.34c4.99-4.7,7.48-10.68,7.48-17.93s-2.36-13.3-7.06-17.72c-4.71-4.47-11.03-6.71-18.99-6.71H2.3v.21h4.52v48.99H2.3v.21h21.67c7.39,0,13.58-2.35,18.57-7.06M17.27,279.19v-48.99h6c4.94,0,8.71,2.28,11.29,6.85,2.69,4.61,4.03,10.54,4.03,17.79,0,7.72-1.28,13.71-3.84,17.97-2.57,4.26-6.37,6.39-11.4,6.39h-6.07Z"/>
          <polygon class="cls-1" points="70.71 279.19 66.47 279.19 66.47 243.61 53.2 243.61 53.2 243.82 57.5 243.82 57.5 279.19 53.2 279.19 53.2 279.4 70.71 279.4 70.71 279.19"/>
          <path class="cls-1" d="M61.81,238.46c1.41,0,2.61-.43,3.61-1.31.99-.87,1.48-1.96,1.48-3.28s-.45-2.39-1.37-3.21c-.92-.83-2.11-1.24-3.56-1.24s-2.62.44-3.61,1.31c-.99.87-1.48,1.97-1.48,3.28s.46,2.39,1.37,3.21c.92.83,2.11,1.24,3.56,1.24"/>
          <path class="cls-1" d="M89.27,259.78c-1.55.66-3.26,1.3-5.12,1.94-1.86.64-3.56,1.25-5.12,1.83-1.55.6-2.86,1.55-3.92,2.9-1.06,1.34-1.59,3.05-1.59,5.12,0,2.59.92,4.67,2.76,6.25,1.83,1.58,4.14,2.37,6.92,2.37,5.22,0,8.91-2.42,11.08-7.27.85,4.85,3.39,7.27,7.62,7.27,2.25,0,4.01-.69,5.26-2.04,1.25-1.36,1.92-3.06,2.01-5.08h-.21c-.19,2.39-1.23,3.6-3.11,3.6s-2.89-1.23-2.89-3.68v-16.94c0-4.24-1.24-7.51-3.7-9.81-2.47-2.3-6.01-3.46-10.63-3.46-4.19,0-7.47.9-9.85,2.68-2.37,1.79-3.56,4.05-3.56,6.78,0,1.41.45,2.59,1.34,3.53.89.95,2,1.41,3.32,1.41,1.41,0,2.56-.43,3.46-1.27.89-.85,1.34-1.9,1.34-3.17s-.43-2.39-1.3-3.21c-.88-.83-1.94-1.24-3.21-1.24-.24,0-.49.03-.78.08-.28.04-.53.11-.74.18-.21.07-.41.14-.6.21-.19.07-.33.13-.43.18l-.21.07c-.33,0-.5-.14-.5-.42,0-1.04.92-2.19,2.76-3.46,1.83-1.27,4.05-1.91,6.63-1.91,2.73,0,4.82.65,6.29,1.95,1.46,1.3,2.18,3.19,2.18,5.68,0,2.31-.53,4.21-1.59,5.72-1.06,1.51-2.36,2.59-3.91,3.25M94.15,270.72c0,1.93-.56,3.51-1.66,4.76-1.11,1.25-2.56,1.88-4.35,1.88-1.69,0-3.06-.59-4.09-1.76-1.04-1.18-1.55-2.8-1.55-4.87s.45-3.98,1.34-5.44c.57-.94,1.17-1.7,1.81-2.29.63-.59,1.55-1.28,2.75-2.09,1.2-.8,2.03-1.36,2.51-1.69,1.46-1.13,2.54-2.28,3.25-3.46v14.97Z"/>
          <path class="cls-1" d="M156.9,277.78c1.36,1.6,3.15,2.4,5.36,2.4s4.06-.69,5.4-2.09c1.34-1.39,2.06-3.07,2.16-5.04h-.28c-.05,1.08-.34,1.95-.88,2.61-.55.66-1.24.99-2.09.99-1.88,0-2.82-1.27-2.82-3.82v-16.87c0-8.7-3.23-13.06-9.68-13.06-1.79,0-3.39.28-4.8.85-1.41.57-2.53,1.31-3.35,2.23-.83.92-1.47,1.76-1.94,2.54-.48.78-.83,1.54-1.06,2.29-1.18-5.26-4.31-7.9-9.39-7.9-3.48,0-6.16.99-8.04,2.97-1.37,1.36-2.33,2.73-2.9,4.09v-6.35h-13.06v.21h4.24v35.37h-4.24v.21h16.87v-.21h-3.82v-25.69c0-2.54.6-4.61,1.81-6.22,1.2-1.6,2.79-2.4,4.76-2.4,1.55,0,2.79.55,3.7,1.62.92,1.09,1.38,2.59,1.38,4.52v28.17h-3.67v.21h16.45v-.21h-3.81v-25.69c0-2.54.6-4.61,1.8-6.22,1.2-1.6,2.77-2.4,4.69-2.4,1.6,0,2.86.55,3.78,1.62.92,1.09,1.37,2.59,1.37,4.52v20.18c0,2.78.69,4.97,2.05,6.57"/>
          <path class="cls-1" d="M188.52,280.11c4.89,0,9.08-1.81,12.57-5.44,3.48-3.62,5.22-8.11,5.22-13.48s-1.65-9.77-4.94-13.2c-3.25-3.44-7.41-5.15-12.5-5.15s-9.2,1.79-12.63,5.36c-3.44,3.58-5.15,8.05-5.15,13.41s1.62,9.79,4.87,13.27c3.34,3.48,7.53,5.22,12.57,5.22M188.87,243.04c2.64,0,4.63,1.62,5.96,4.84,1.34,3.22,2.02,7.78,2.02,13.66,0,12.19-2.78,18.28-8.33,18.28-2.63,0-4.63-1.62-6-4.87-1.36-3.25-2.04-7.81-2.04-13.69,0-12.15,2.79-18.22,8.39-18.22"/>
          <path class="cls-1" d="M226.21,245.94c-1.36,1.41-2.35,2.82-2.96,4.24v-6.57h-13.27v.21h4.24v35.37h-4.24v.21h17.08v-.21h-3.81v-25.48c0-2.54.64-4.65,1.94-6.32,1.3-1.67,2.93-2.51,4.91-2.51,1.74,0,3.11.53,4.1,1.59.99,1.06,1.48,2.56,1.48,4.49v20.25c0,2.78.7,4.97,2.09,6.57,1.39,1.6,3.19,2.4,5.4,2.4s4.06-.69,5.4-2.09c1.34-1.39,2.06-3.07,2.15-5.04h-.21c-.1,1.08-.41,1.95-.95,2.61-.55.66-1.21.99-2.02.99-1.88,0-2.82-1.27-2.82-3.82v-16.87c0-4.19-.88-7.41-2.65-9.67-1.76-2.26-4.32-3.39-7.66-3.39-3.53,0-6.26,1.01-8.19,3.04"/>
          <path class="cls-1" d="M266.67,280.11c3.06,0,5.53-1.01,7.41-3.04,1.36-1.51,2.33-2.91,2.9-4.24.85,4.85,3.31,7.27,7.41,7.27,2.26,0,4.03-.69,5.29-2.05,1.27-1.36,1.93-3.03,1.98-5.01h-.21c-.05,1.08-.36,1.95-.92,2.61-.56.66-1.27.99-2.11.99-1.88,0-2.82-1.3-2.82-3.89v-42.78h-13.55v.21h4.73v18.43c-.47-.99-1.01-1.83-1.62-2.51-.61-.68-1.62-1.4-3.03-2.16-1.46-.85-3.18-1.27-5.15-1.27-4.24,0-7.74,1.81-10.52,5.43-2.73,3.58-4.09,8.14-4.09,13.69s1.29,9.86,3.88,13.2c2.64,3.39,6.12,5.08,10.45,5.08M263.92,248.87c1.46-2.99,3.6-4.48,6.43-4.48,1.93,0,3.48.69,4.66,2.08,1.18,1.39,1.76,3.35,1.76,5.9v17.22c0,2.64-.6,4.68-1.8,6.11-1.2,1.43-2.81,2.15-4.84,2.15-2.77,0-4.87-1.41-6.28-4.24-1.41-2.82-2.11-6.87-2.11-12.14s.73-9.61,2.18-12.6"/>
        </g>
        <polygon class="cls-1" points="150.44 293.56 146.98 288.8 143.52 293.56 0 293.56 0 295.1 .9 295.1 .9 295.36 143.53 295.36 146.98 300.12 146.98 300.12 146.98 300.12 150.43 295.36 293.06 295.36 293.06 295.1 293.96 295.1 293.96 293.56 150.44 293.56"/>
      </g>
      <path class="cls-1" d="M192.54,26.33c-.43-5.68-2.35-10.51-5.76-14.47-.38-.46-.78-.9-1.21-1.33-.21-.21-.43-.43-.65-.63-.43-.43-.89-.82-1.36-1.21-.43-.36-.87-.71-1.33-1.05-4.04-2.96-9.04-5.06-15.02-6.28-4.29-.9-9.07-1.35-14.35-1.35h-51.36v.5h10.74v25.77h-.62s-49.71,49.72-49.71,49.72c29.54,29.71,59.1,59.41,88.63,89.14,30.7-30.39,61.44-60.76,92.16-91.14l-50.16-47.66ZM133.23.5h14.27c2.57,0,4.94.28,7.09.85,4.38,1.14,7.86,3.47,10.44,6.96,2.25,3.03,3.85,6.73,4.78,11.08.15.65.27,1.31.38,1.98.05.34.11.67.15,1.01h0c.09.69.17,1.39.24,2.1.03.34.05.71.08,1.06-12.48.15-24.95.3-37.42.46V.5ZM170.8,28.48c0,.41.03.81.03,1.22,0,2.84-.19,5.49-.58,7.97-.13.93-.31,1.83-.51,2.69-.86,3.89-2.27,7.27-4.2,10.15-3.53,5.26-8.53,7.89-15.02,7.89-4.59,0-8.3,1.17-11.16,3.53-2.85,2.34-4.28,5.48-4.28,9.39,0,3.24.91,5.85,2.77,7.81,1.84,1.97,4.21,2.93,7.13,2.93s5.06-.83,6.8-2.52,2.6-3.86,2.6-6.54c0-1.6-.41-2.96-1.09-4.17h-.27c.65,1.26,1.02,2.63,1.02,4.17,0,2.57-.83,4.67-2.52,6.29-1.68,1.63-3.86,2.44-6.54,2.44-2.92,0-5.24-.94-6.97-2.85-1.74-1.9-2.6-4.42-2.6-7.55,0-3.92,1.37-6.96,4.11-9.14,2.75-2.19,6.41-3.28,11-3.28,8.17,0,14.5,2.64,18.96,7.89,3.77,4.43,5.95,10.08,6.54,16.96.12,1.29.17,2.64.17,4.02,0,.83-.01,1.66-.07,2.45-.36,7.91-2.54,14.23-6.57,18.95-.87,1.04-1.82,1.94-2.87,2.76h-.01c-1.21.98-2.54,1.8-4,2.48-.41.19-.83.37-1.26.55-8.31,3.22-28.19,1.15-28.19,1.15h0s0-87.15,0-87.15l37.56-.47ZM66.1,76l46.15-46.15v87.12h-5.41l-40.74-40.97ZM107.33,117.47h25.33,0s.02,0,.02,0h20.18c2.57,0,5.04-.1,7.41-.32h.09s0,0,0,0c.38-.03.77-.06,1.14-.11,1.05-.09,2.07-.21,3.08-.36h.01c1.08-.15,2.13-.34,3.16-.54,1.76-.34,3.47-.75,5.11-1.22,1.32-.39,2.6-.82,3.84-1.31.17-.05.34-.12.5-.19,1.51-.58,2.95-1.24,4.32-1.98,1.29-.66,2.53-1.4,3.7-2.19,8.02-5.23,12.22-12.21,12.56-20.93.03-.4.04-.81.04-1.22,0-.96-.04-1.88-.13-2.79-.01-.15-.03-.31-.04-.46-.12-1.14-.32-2.26-.59-3.34-1.21-5.09-3.93-9.43-8.16-13.02-.35-.31-.7-.59-1.06-.87-.36-.28-.73-.55-1.12-.82-.73-.51-1.49-1.01-2.29-1.47-6.25-3.67-14.21-5.65-23.88-5.94,9.52-1.22,17.23-4.56,23.16-9.99,2.69-2.46,4.78-5.14,6.23-8.05.46-.87.83-1.78,1.16-2.69.84-2.29,1.3-4.7,1.44-7.24l45.88,43.59-87.9,86.92-43.23-43.48Z"/>
      <g>
        <path class="cls-1" d="M96.02,217.91c3.69-2.38,5.54-5.61,5.54-9.69,0-3.69-1.45-6.64-4.34-8.85-2.88-2.21-6.83-3.39-11.84-3.54,4.18-.53,7.55-1.98,10.13-4.33,2.58-2.36,3.86-5.21,3.86-8.56,0-3.93-1.55-6.99-4.66-9.18-3.11-2.18-7.53-3.28-13.25-3.28h-23.54v.22h4.66v50.56h-4.66v.22h23.46c6.07,0,10.95-1.19,14.65-3.57M73.28,170.7h5.46c3.21,0,5.6,1.12,7.18,3.35,1.58,2.23,2.37,5.34,2.37,9.33,0,8.3-3.23,12.46-9.69,12.46h-5.32v-25.13ZM73.28,221.26v-25.21h6.92c3.44,0,6.03,1.11,7.76,3.32,1.72,2.21,2.58,5.26,2.58,9.14s-.9,7.16-2.69,9.4c-1.79,2.23-4.52,3.35-8.16,3.35h-6.41Z"/>
        <path class="cls-1" d="M108.4,213.03c0,2.86.71,5.12,2.15,6.78,1.44,1.65,3.29,2.47,5.57,2.47s4.21-.71,5.65-2.15c1.43-1.43,2.2-3.16,2.3-5.21h-.29c-.05,1.12-.35,2.02-.91,2.7-.56.69-1.27,1.02-2.15,1.02-1.95,0-2.91-1.31-2.91-3.93v-44.22h-13.92v.22h4.52v42.33Z"/>
        <path class="cls-1" d="M142.87,201.23c-1.6.68-3.37,1.35-5.29,2-1.92.66-3.68,1.29-5.28,1.9-1.6.61-2.95,1.6-4.05,2.98-1.09,1.39-1.64,3.15-1.64,5.29,0,2.67.95,4.82,2.84,6.45,1.9,1.62,4.27,2.44,7.14,2.44,5.39,0,9.21-2.5,11.44-7.5.88,5,3.49,7.5,7.87,7.5,2.33,0,4.14-.7,5.43-2.11,1.29-1.41,1.97-3.16,2.07-5.25h-.22c-.2,2.48-1.26,3.72-3.21,3.72s-2.98-1.26-2.98-3.79v-17.48c0-4.38-1.27-7.75-3.83-10.13-2.55-2.38-6.2-3.57-10.96-3.57-4.32,0-7.71.92-10.16,2.77-2.46,1.84-3.68,4.17-3.68,6.99,0,1.46.46,2.67,1.39,3.64.92.97,2.07,1.46,3.42,1.46,1.46,0,2.65-.43,3.57-1.31.92-.88,1.38-1.97,1.38-3.28s-.45-2.46-1.34-3.31c-.9-.85-2-1.27-3.32-1.27-.24,0-.5.02-.8.07-.29.05-.55.11-.76.18-.22.08-.43.15-.62.22-.2.08-.34.14-.43.19l-.22.07c-.34,0-.51-.15-.51-.44,0-1.06.95-2.25,2.84-3.56,1.89-1.32,4.17-1.97,6.85-1.97,2.81,0,4.98.66,6.48,2,1.51,1.34,2.26,3.29,2.26,5.86,0,2.38-.55,4.35-1.65,5.9-1.09,1.55-2.44,2.67-4.04,3.35M147.89,212.52c0,1.99-.57,3.63-1.72,4.91-1.14,1.29-2.63,1.93-4.48,1.93-1.74,0-3.16-.6-4.22-1.82-1.07-1.21-1.6-2.89-1.6-5.03s.46-4.1,1.39-5.61c.58-.97,1.2-1.76,1.86-2.37.66-.61,1.6-1.32,2.84-2.15,1.24-.83,2.1-1.41,2.58-1.75,1.51-1.17,2.63-2.36,3.35-3.57v15.44Z"/>
        <path class="cls-1" d="M180.97,222.21c3.89,0,7.04-.96,9.44-2.88,2.4-1.92,3.82-4.5,4.26-7.76h-.29c-.34,2.58-1.34,4.61-3.02,6.12-1.67,1.51-3.75,2.25-6.23,2.25-3.64,0-6.44-1.53-8.41-4.59-1.97-3.06-2.95-7.29-2.95-12.68,0-6.07.91-10.67,2.73-13.81,1.82-3.13,4.41-4.7,7.76-4.7,2.77,0,4.83.68,6.19,2.04,1.41,1.32,2.11,2.56,2.11,3.72,0,.29-.15.44-.44.44l-.22-.08c-.1-.05-.25-.1-.43-.18-.2-.07-.41-.15-.66-.22-.25-.08-.52-.13-.84-.18-.32-.05-.62-.08-.91-.08-1.31,0-2.4.44-3.28,1.32-.88.88-1.31,2.04-1.31,3.49,0,1.32.45,2.41,1.34,3.32.9.9,2.08,1.34,3.54,1.34s2.76-.53,3.75-1.6c.99-1.06,1.49-2.42,1.49-4.08,0-2.87-1.11-5.22-3.35-7.07-2.24-1.84-5.35-2.76-9.33-2.76-5.3,0-9.57,1.84-12.83,5.54-3.3,3.74-4.96,8.37-4.96,13.91s1.53,10.3,4.59,13.84c3.06,3.55,7.14,5.32,12.24,5.32"/>
        <path class="cls-1" d="M209.97,170.49h-13.62v.22h4.38v50.56h-4.38v.22h17.41v-.22h-3.79v-23.75c0-3.16.88-5.78,2.63-7.87,1.75-2.14,3.86-3.2,6.34-3.2,1.8,0,3.23.6,4.3,1.79,1.07,1.19,1.6,2.78,1.6,4.77,0,1.85-.51,3.44-1.53,4.77-1.02,1.34-2.31,2.32-3.86,2.95-3.89,1.6-6.43,3.62-7.65,6.05l3.72,5.82c3.64,6.41,7.77,9.62,12.39,9.62,2.43,0,4.38-.76,5.87-2.3,1.48-1.53,2.25-3.48,2.3-5.86h-.22c-.05,1.01-.41,1.87-1.09,2.55-.68.68-1.48,1.01-2.4,1.01-1.22,0-2.21-.27-2.99-.83s-1.6-1.54-2.48-2.95l-7.21-11.07c1.02-.39,2.31-.81,3.86-1.24,1.36-.39,2.67-.85,3.93-1.39.73-.29,1.74-.83,3.06-1.6,2.18-1.36,3.28-3.54,3.28-6.56,0-2.57-.86-4.59-2.58-6.04-1.73-1.46-4.24-2.18-7.54-2.18s-6.1.99-8.67,2.98c-2.48,2-4.15,4.35-5.03,7.07v-23.31Z"/>
      </g>
    </g>
  </g>
</svg>