<?xml version="1.0" encoding="UTF-8"?>
<svg id="Layer_2" data-name="Layer 2" xmlns="http://www.w3.org/2000/svg" viewBox="0 0 1032.67 943.22">
  <defs>
    <style>
      .cls-1 {
        fill: #fff;
      }
    </style>
  </defs>
  <g id="Layer_1-2" data-name="Layer 1">
    <path class="cls-1" d="M746.14,150.39c-2.47-32.43-13.43-60.03-32.89-82.65-2.16-2.61-4.46-5.15-6.93-7.62-1.23-1.23-2.46-2.45-3.69-3.61-2.46-2.46-5.07-4.69-7.77-6.91-2.46-2.07-4.99-4.07-7.61-6-23.06-16.91-51.66-28.9-85.8-35.9-24.52-5.15-51.81-7.69-81.95-7.69H226.13v2.85h61.35v147.22l-3.55.04L0,434.07c168.76,169.69,337.59,339.34,506.26,509.15,175.38-173.59,350.95-347.06,526.4-520.6l-286.53-272.23ZM407.34,2.85h81.49c14.68,0,28.22,1.61,40.51,4.85,24.99,6.53,44.9,19.84,59.66,39.74,12.84,17.3,21.99,38.44,27.29,63.27.85,3.69,1.54,7.46,2.16,11.3.31,1.92.61,3.84.85,5.76v.08c.53,3.84.99,7.84,1.38,11.91.19,1.97.28,4.05.43,6.06-71.26.87-142.52,1.72-213.77,2.65V2.85ZM621.9,162.68c.05,2.34.16,4.61.16,6.99,0,16.22-1.08,31.37-3.3,45.51-.77,5.31-1.77,10.46-2.93,15.38-4.92,22.22-12.99,41.51-23.98,57.97-20.15,30.06-48.75,45.05-85.8,45.05-26.22,0-47.43,6.69-63.74,20.15-16.3,13.37-24.45,31.29-24.45,53.66,0,18.53,5.23,33.44,15.84,44.59,10.53,11.23,24.06,16.76,40.75,16.76s28.9-4.76,38.82-14.37c9.92-9.61,14.84-22.06,14.84-37.36,0-9.13-2.35-16.91-6.22-23.82h-1.54c3.73,7.18,5.83,15.03,5.83,23.82,0,14.69-4.77,26.67-14.38,35.9-9.61,9.3-22.06,13.92-37.36,13.92-16.69,0-29.91-5.38-39.82-16.3-9.92-10.84-14.84-25.22-14.84-43.13,0-22.37,7.84-39.74,23.45-52.2,15.68-12.53,36.59-18.76,62.81-18.76,46.66,0,82.8,15.07,108.32,45.05,21.53,25.3,33.99,57.58,37.36,96.87.69,7.38,1,15.07,1,22.99,0,4.76-.08,9.46-.39,13.99-2.07,45.21-14.53,81.26-37.52,108.25-5,5.92-10.37,11.07-16.37,15.76l-.08.08c-6.92,5.54-14.53,10.23-22.83,14.07-2.34,1.11-4.75,2.14-7.19,3.13-47.45,18.42-161.02,6.57-161.02,6.57h0s0-497.78,0-497.78l214.57-2.71ZM23.87,434.11L287.48,170.5v497.66h-30.9L23.87,434.11ZM259.41,671h144.69,0s.12,0,.12,0h115.29c14.66,0,28.78-.6,42.34-1.81h.54s.02-.05.02-.05c2.18-.2,4.38-.37,6.53-.6,6-.53,11.84-1.23,17.6-2.07h.08c6.15-.84,12.15-1.92,18.07-3.07,10.07-1.92,19.84-4.3,29.22-7,7.53-2.23,14.83-4.69,21.91-7.46.99-.3,1.92-.69,2.84-1.08,8.61-3.3,16.84-7.07,24.68-11.3,7.38-3.76,14.45-8,21.14-12.53,45.82-29.9,69.81-69.73,71.73-119.55.16-2.3.23-4.61.23-6.99,0-5.46-.23-10.77-.76-15.91-.08-.85-.16-1.77-.23-2.62-.7-6.53-1.85-12.92-3.38-19.07-6.92-29.06-22.45-53.89-46.59-74.34-2-1.77-4-3.38-6.07-5-2.08-1.61-4.16-3.15-6.39-4.69-4.14-2.92-8.53-5.77-13.06-8.38-35.68-20.99-81.18-32.29-136.38-33.9,54.35-7,98.41-26.06,132.31-57.04,15.37-14.07,27.29-29.37,35.59-45.97,2.61-5,4.76-10.15,6.61-15.38,4.78-13.07,7.44-26.86,8.25-41.35l262.08,248.99-502.06,496.52-246.92-248.35Z"/>
  </g>
</svg>